<svg width="1259" height="300" viewBox="0 0 1259 300" fill="none" xmlns="http://www.w3.org/2000/svg">
<path d="M663.912 240V72H696.072L788.952 197.52H782.232C781.592 192.56 781.032 187.76 780.552 183.12C780.072 178.32 779.592 173.52 779.112 168.72C778.792 163.76 778.472 158.72 778.152 153.6C777.992 148.32 777.832 142.8 777.672 137.04C777.512 131.12 777.432 124.72 777.432 117.84V72H812.712V240H780.072L685.272 113.28L694.392 113.52C695.192 121.84 695.832 128.96 696.312 134.88C696.952 140.64 697.432 145.68 697.752 150C698.072 154.32 698.312 158.08 698.472 161.28C698.792 164.48 698.952 167.52 698.952 170.4C699.112 173.28 699.192 176.32 699.192 179.52V240H663.912ZM1024.16 240L970.882 113.04H1008.32L1042.16 207.84L1034.24 209.28L1069.76 113.04H1106.24L1050.32 240H1024.16ZM1166.26 242.4C1155.7 242.4 1146.18 239.52 1137.7 233.76C1129.22 228 1122.5 220.16 1117.54 210.24C1112.58 200.32 1110.1 188.96 1110.1 176.16C1110.1 163.36 1112.58 152.08 1117.54 142.32C1122.66 132.4 1129.54 124.64 1138.18 119.04C1146.82 113.28 1156.66 110.4 1167.7 110.4C1173.94 110.4 1179.62 111.36 1184.74 113.28C1190.02 115.04 1194.58 117.52 1198.42 120.72C1202.42 123.92 1205.78 127.6 1208.5 131.76C1211.22 135.92 1213.14 140.4 1214.26 145.2L1207.06 144V113.04H1240.9V240H1206.58V209.52L1214.26 208.8C1212.98 213.28 1210.9 217.52 1208.02 221.52C1205.14 225.52 1201.54 229.12 1197.22 232.32C1193.06 235.36 1188.34 237.84 1183.06 239.76C1177.78 241.52 1172.18 242.4 1166.26 242.4ZM1175.62 212.88C1182.02 212.88 1187.62 211.36 1192.42 208.32C1197.22 205.28 1200.9 201.04 1203.46 195.6C1206.18 190 1207.54 183.52 1207.54 176.16C1207.54 168.96 1206.18 162.64 1203.46 157.2C1200.9 151.76 1197.22 147.52 1192.42 144.48C1187.62 141.28 1182.02 139.68 1175.62 139.68C1169.38 139.68 1163.86 141.28 1159.06 144.48C1154.42 147.52 1150.74 151.76 1148.02 157.2C1145.3 162.64 1143.94 168.96 1143.94 176.16C1143.94 183.52 1145.3 190 1148.02 195.6C1150.74 201.04 1154.42 205.28 1159.06 208.32C1163.86 211.36 1169.38 212.88 1175.62 212.88Z" fill="#2A2E33"/>
<path d="M95.52 242.4C83.2 242.4 71.84 240.32 61.44 236.16C51.2 231.84 42.24 225.84 34.56 218.16C27.04 210.32 21.2 201.12 17.04 190.56C12.88 179.84 10.8 168.16 10.8 155.52C10.8 143.2 12.96 131.84 17.28 121.44C21.6 110.88 27.68 101.76 35.52 94.08C43.36 86.24 52.56 80.16 63.12 75.84C73.68 71.52 85.12 69.36 97.44 69.36C105.44 69.36 113.28 70.48 120.96 72.72C128.8 74.8 135.92 77.92 142.32 82.08C148.88 86.24 154.48 91.2 159.12 96.96L136.56 121.92C132.72 118.08 128.72 114.8 124.56 112.08C120.56 109.2 116.24 107.04 111.6 105.6C107.12 104 102.32 103.2 97.2 103.2C90.32 103.2 83.84 104.48 77.76 107.04C71.84 109.6 66.64 113.2 62.16 117.84C57.68 122.32 54.08 127.84 51.36 134.4C48.8 140.8 47.52 147.92 47.52 155.76C47.52 163.76 48.8 171.04 51.36 177.6C53.92 184 57.52 189.52 62.16 194.16C66.8 198.64 72.32 202.16 78.72 204.72C85.28 207.12 92.48 208.32 100.32 208.32C105.44 208.32 110.4 207.6 115.2 206.16C120 204.72 124.4 202.72 128.4 200.16C132.56 197.6 136.24 194.64 139.44 191.28L156.96 219.36C153.12 223.68 147.92 227.6 141.36 231.12C134.96 234.64 127.76 237.44 119.76 239.52C111.76 241.44 103.68 242.4 95.52 242.4ZM225.229 242.4C214.669 242.4 205.149 239.52 196.669 233.76C188.189 228 181.469 220.16 176.509 210.24C171.549 200.32 169.069 188.96 169.069 176.16C169.069 163.36 171.549 152.08 176.509 142.32C181.629 132.4 188.509 124.64 197.149 119.04C205.789 113.28 215.629 110.4 226.669 110.4C232.909 110.4 238.589 111.36 243.709 113.28C248.989 115.04 253.549 117.52 257.389 120.72C261.389 123.92 264.749 127.6 267.469 131.76C270.189 135.92 272.109 140.4 273.229 145.2L266.029 144V113.04H299.869V240H265.549V209.52L273.229 208.8C271.949 213.28 269.869 217.52 266.989 221.52C264.109 225.52 260.509 229.12 256.189 232.32C252.029 235.36 247.309 237.84 242.029 239.76C236.749 241.52 231.149 242.4 225.229 242.4ZM234.589 212.88C240.989 212.88 246.589 211.36 251.389 208.32C256.189 205.28 259.869 201.04 262.429 195.6C265.149 190 266.509 183.52 266.509 176.16C266.509 168.96 265.149 162.64 262.429 157.2C259.869 151.76 256.189 147.52 251.389 144.48C246.589 141.28 240.989 139.68 234.589 139.68C228.349 139.68 222.829 141.28 218.029 144.48C213.389 147.52 209.709 151.76 206.989 157.2C204.269 162.64 202.909 168.96 202.909 176.16C202.909 183.52 204.269 190 206.989 195.6C209.709 201.04 213.389 205.28 218.029 208.32C222.829 211.36 228.349 212.88 234.589 212.88ZM371.957 242.4C360.117 242.4 349.557 240.48 340.277 236.64C331.157 232.64 323.797 227.2 318.197 220.32L339.317 202.08C344.277 207.36 349.797 211.2 355.877 213.6C361.957 215.84 368.037 216.96 374.117 216.96C376.517 216.96 378.677 216.72 380.597 216.24C382.677 215.6 384.437 214.8 385.877 213.84C387.317 212.72 388.357 211.44 388.997 210C389.797 208.4 390.197 206.72 390.197 204.96C390.197 201.44 388.757 198.64 385.877 196.56C384.277 195.76 381.797 194.8 378.437 193.68C375.077 192.4 370.757 191.04 365.477 189.6C357.317 187.52 350.357 185.12 344.597 182.4C338.997 179.52 334.517 176.32 331.157 172.8C328.277 169.44 326.037 165.84 324.437 162C322.997 158 322.277 153.6 322.277 148.8C322.277 143.04 323.557 137.84 326.117 133.2C328.677 128.4 332.197 124.32 336.677 120.96C341.317 117.6 346.597 115.04 352.517 113.28C358.437 111.36 364.677 110.4 371.237 110.4C377.797 110.4 384.197 111.2 390.437 112.8C396.677 114.4 402.437 116.72 407.717 119.76C413.157 122.64 417.877 126.08 421.877 130.08L403.637 150.24C400.757 147.52 397.477 145.04 393.797 142.8C390.277 140.56 386.597 138.8 382.757 137.52C378.917 136.24 375.477 135.6 372.437 135.6C369.717 135.6 367.237 135.84 364.997 136.32C362.917 136.8 361.157 137.52 359.717 138.48C358.277 139.44 357.157 140.72 356.357 142.32C355.717 143.76 355.397 145.36 355.397 147.12C355.397 148.88 355.797 150.56 356.597 152.16C357.557 153.76 358.837 155.12 360.437 156.24C362.197 157.2 364.757 158.32 368.117 159.6C371.637 160.88 376.357 162.32 382.277 163.92C389.957 166 396.437 168.32 401.717 170.88C407.157 173.44 411.477 176.4 414.677 179.76C417.397 182.64 419.397 185.92 420.677 189.6C421.957 193.28 422.597 197.36 422.597 201.84C422.597 209.68 420.357 216.72 415.877 222.96C411.557 229.04 405.557 233.84 397.877 237.36C390.197 240.72 381.557 242.4 371.957 242.4ZM489.613 242.4C479.053 242.4 469.533 239.52 461.053 233.76C452.573 228 445.853 220.16 440.893 210.24C435.933 200.32 433.453 188.96 433.453 176.16C433.453 163.36 435.933 152.08 440.893 142.32C446.013 132.4 452.893 124.64 461.533 119.04C470.173 113.28 480.013 110.4 491.053 110.4C497.293 110.4 502.973 111.36 508.093 113.28C513.373 115.04 517.933 117.52 521.773 120.72C525.773 123.92 529.133 127.6 531.853 131.76C534.573 135.92 536.493 140.4 537.613 145.2L530.413 144V113.04H564.253V240H529.933V209.52L537.613 208.8C536.333 213.28 534.253 217.52 531.373 221.52C528.493 225.52 524.893 229.12 520.573 232.32C516.413 235.36 511.693 237.84 506.413 239.76C501.133 241.52 495.533 242.4 489.613 242.4ZM498.973 212.88C505.373 212.88 510.973 211.36 515.773 208.32C520.573 205.28 524.253 201.04 526.813 195.6C529.533 190 530.893 183.52 530.893 176.16C530.893 168.96 529.533 162.64 526.813 157.2C524.253 151.76 520.573 147.52 515.773 144.48C510.973 141.28 505.373 139.68 498.973 139.68C492.733 139.68 487.213 141.28 482.413 144.48C477.773 147.52 474.093 151.76 471.373 157.2C468.653 162.64 467.293 168.96 467.293 176.16C467.293 183.52 468.653 190 471.373 195.6C474.093 201.04 477.773 205.28 482.413 208.32C487.213 211.36 492.733 212.88 498.973 212.88Z" fill="#2A2E33"/>
<path d="M900.634 105.314C886.525 105.314 872.732 109.498 861.001 117.337C849.269 125.176 840.126 136.317 834.726 149.353C829.327 162.388 827.914 176.732 830.667 190.57C833.419 204.409 840.214 217.12 850.19 227.097C860.167 237.074 872.879 243.868 886.717 246.62C900.555 249.373 914.899 247.96 927.934 242.561C940.97 237.161 952.111 228.018 959.95 216.286C967.789 204.555 971.973 190.762 971.973 176.653C971.952 157.739 964.429 139.606 951.055 126.232C937.681 112.858 919.548 105.335 900.634 105.314ZM900.634 111.022C913.882 111.008 926.821 115.026 937.73 122.543V138.13C937.724 138.816 937.471 139.477 937.017 139.992L921.201 158.369C920.746 158.896 920.115 159.238 919.425 159.332L897.957 162.333C897.231 162.437 895.533 162.304 894.941 161.872L894.827 161.793L880.752 152.555C879.819 151.891 878.762 151.422 877.645 151.174C876.527 150.926 875.371 150.905 874.245 151.112C873.119 151.318 872.045 151.749 871.089 152.378C870.132 153.007 869.311 153.822 868.675 154.773L853.694 177.102C852.765 178.497 852.269 180.135 852.267 181.811L852.124 207.656C852.123 208.128 852.005 208.591 851.781 209.006C851.557 209.42 851.234 209.773 850.84 210.032L846.096 213.142C839.487 203.262 835.686 191.773 835.098 179.901C834.51 168.029 837.156 156.22 842.756 145.735C848.356 135.25 856.698 126.482 866.891 120.369C877.085 114.255 888.748 111.024 900.634 111.022ZM849.499 217.744L853.986 214.797C855.169 214.02 856.141 212.962 856.814 211.717C857.488 210.472 857.842 209.079 857.846 207.664L857.995 181.818C857.998 181.259 858.164 180.713 858.473 180.248L873.419 157.919C873.633 157.601 873.909 157.33 874.23 157.121C874.552 156.912 874.912 156.77 875.29 156.704C875.667 156.637 876.054 156.647 876.428 156.734C876.801 156.82 877.154 156.981 877.464 157.206L877.571 157.284L891.653 166.494C893.424 167.753 895.607 168.291 897.759 167.999L920.21 164.96C922.285 164.681 924.186 163.651 925.553 162.064L941.369 143.702C942.701 142.151 943.435 140.175 943.437 138.13V126.937C953.795 135.837 961.116 147.749 964.377 161.01C967.638 174.271 966.677 188.219 961.629 200.908L946.954 187.482C945.751 186.383 944.26 185.651 942.655 185.37C941.05 185.09 939.399 185.273 937.894 185.898L916.172 194.93C914.808 195.5 913.615 196.412 912.707 197.578C911.798 198.744 911.205 200.124 910.985 201.586L909.288 213.135C908.989 215.22 909.469 217.342 910.636 219.095C911.804 220.848 913.576 222.109 915.615 222.638L930.917 226.654C931.405 226.773 931.853 227.019 932.216 227.367L936.453 231.648C922.822 240.545 906.366 244.05 890.292 241.48C874.218 238.91 859.676 230.448 849.499 217.744ZM941.119 228.273L936.225 223.365C935.15 222.289 933.808 221.518 932.337 221.132L917.042 217.116C916.355 216.946 915.756 216.527 915.361 215.941C914.965 215.354 914.802 214.642 914.902 213.941L916.607 202.385C916.679 201.897 916.875 201.437 917.178 201.048C917.481 200.659 917.879 200.355 918.333 200.166L940.056 191.142C940.558 190.932 941.109 190.871 941.645 190.964C942.181 191.058 942.679 191.302 943.081 191.67L959.132 206.344C954.79 214.874 948.644 222.358 941.119 228.273Z" fill="#2A2E33" stroke="#2A2E33" stroke-width="4"/>
</svg>
